<svg xmlns="http://www.w3.org/2000/svg" xml:space="preserve" width="2000" height="1500" data-id="lg_iiMChoYm5SKrQjLRzF" data-version="1" viewBox="0 0 2000 1500"><path fill="transparent" stroke="transparent" d="M0 0h2000v1500H0z"/><g data-padding="20"><g transform="translate(-1574.849 -1191.494)scale(2.50797)"><path fill="#8134af" d="M844.148 675.459a88.837 88.837 0 1 0 0 177.674 88.837 88.837 0 1 0 0-177.674"/><rect width="443.552" height="133.34" x="413.092" y="307.506" fill="none" rx="0" ry="0" transform="translate(458.73 406.65)"/><path d="M897.068 817.896h-18.17q.83 0 1.65-1.65.83-1.66.83-5.43v-56.64q0-3.78-.83-5.37-.82-1.59-1.65-1.71h18.17q-.82 0-1.65 1.65t-.83 5.55v56.52q0 3.77.83 5.43.83 1.65 1.65 1.65m34.47 1.18q-11.21 0-17.41-3.78-6.19-3.77-8.61-10.26t-2.42-14.64q0-8.26 2.42-14.75t8.61-10.32q6.2-3.84 17.41-3.84 4.72 0 8.38.89 3.65.88 6.37 2.36 2.71 1.47 4.48 3.48l.24-.12-.24-2.24v-22.3q0-3.78-.76-5.37-.77-1.59-1.6-1.71h14.4v74.34q0 3.77.76 5.43.77 1.65 1.6 1.65h-14.4v-3.66l.36-2.24-.36-.12q-1.77 2.01-4.48 3.66-2.72 1.65-6.37 2.59-3.66.95-8.38.95m.82-8.38q6.02 0 9.68-1.83t5.55-4.84q1.88-3.01 2.53-6.55t.65-7.08q0-3.06-.71-6.66-.7-3.6-2.59-6.79-1.89-3.18-5.55-5.19t-9.56-2.01q-9.91 0-13.63 5.67-3.71 5.66-3.71 15.1 0 6.26 1.47 10.8 1.48 4.54 5.25 6.96 3.78 2.42 10.62 2.42m68.55 8.37q-9.32 0-15.34-2.18-6.02-2.19-9.44-6.08-3.42-3.9-4.78-9.09-1.35-5.19-1.35-11.33 0-13.33 7.61-21.12t22.59-7.79q8.74 0 14.11 2.36 5.36 2.36 8.14 6.26 2.77 3.89 3.77 8.44 1.01 4.54 1.01 8.9v5.55q0-.35-3.25-.77-3.24-.41-10.91-.41h-31.04q0 8.73 5.19 13.81 5.2 5.07 15.46 5.07 8.85 0 14.57-2.18 5.73-2.19 7.62-4.31v2.36l1.18 7.79q-2.6 1.53-9.15 3.13-6.55 1.59-15.99 1.59m-14.16-35.05h28.68q0-3.07-1.3-6.37t-4.6-5.6q-3.31-2.31-9.33-2.31-5.07 0-8.85 1.72-3.77 1.71-5.84 4.42-2.06 2.71-2.06 5.78 0 1.18.71 1.77.7.59 2.59.59m75.99 35.05q-11.09 0-18.58-1.18t-10.21-2.36v-2.36l-2.48-10.15q3.07 2.48 10.8 5.13 7.73 2.66 18.82 2.66 7.32 0 10.98-1 3.65-1.01 4.83-2.72t1.18-3.83q0-2.48-1.71-3.96-1.71-1.47-6.37-2.47-4.66-1.01-13.75-2.07-9.91-1.18-15.28-3.42t-7.37-5.72q-2.01-3.49-2.01-8.32 0-3.78 2.01-7.44 2-3.66 7.49-6.02t15.64-2.36q10.97 0 18.46 1.18 7.5 1.18 10.21 2.36v2.36l2.36 8.97q-2.95-2.12-10.74-4.36-7.79-2.25-18.76-2.25-8.73 0-11.68 1.95t-2.95 5.02q0 1.77.71 3.12.7 1.36 2.89 2.42 2.18 1.06 6.61 1.89 4.42.83 11.85 1.65 10.03 1.06 15.23 3.31 5.19 2.24 7.14 5.6 1.94 3.36 1.94 7.85 0 4.84-2.65 8.55-2.66 3.72-8.68 5.84-6.01 2.13-15.93 2.13m48.27-1.18h-16.76q.83 0 1.59-1.65.77-1.66.77-5.43v-41.07q0-3.77-.77-5.36-.76-1.6-1.59-1.72h14.4v48.15q0 3.77.76 5.43.77 1.65 1.6 1.65m-9.56-66.55q-3.42 0-5.31-1.95t-1.89-4.54q0-2.72 1.83-4.61 1.83-1.88 5.37-1.88t5.37 1.88q1.83 1.89 1.83 4.61 0 2.59-1.89 4.54t-5.31 1.95m43.3 95.35q-6.84 0-12.56-.94-5.73-.95-9.92-2.3-4.18-1.36-6.43-2.66l2.36-10.62v-3.42q1.66 2.48 5.2 5.19t8.85 4.6 12.03 1.89q7.91 0 11.74-2.6 3.84-2.59 5.08-7.19 1.24-4.61 1.24-10.51v-4.36l.23-2.13-.23-.23q-1.54 2-4.25 3.77-2.72 1.77-6.49 2.84-3.78 1.06-8.5 1.06-11.21 0-17.4-3.78-6.2-3.77-8.62-10.26t-2.42-14.64q0-8.26 2.42-14.75t8.62-10.32q6.19-3.84 17.4-3.84 4.72 0 8.38.89 3.66.88 6.37 2.36 2.72 1.47 4.49 3.48l.23-.12-.23-2.24v-3.19h14.39q-.82.12-1.59 1.77-.77 1.66-.77 5.55v45.19q0 17.11-7.25 24.31-7.26 7.2-22.37 7.2m-.82-35.99q7.31 0 11.33-2.3 4.01-2.3 5.54-6.84 1.54-4.55 1.54-11.16 0-6.49-1.6-11.09-1.59-4.6-5.54-7.08-3.96-2.48-11.27-2.48-6.61 0-10.39 2.54-3.77 2.54-5.36 7.2-1.6 4.66-1.6 11.03 0 6.26 1.54 10.8 1.53 4.54 5.37 6.96 3.83 2.42 10.44 2.42m55.7 7.2h-16.75q.82 0 1.59-1.65.77-1.66.77-5.43v-39.89q0-3.77-.77-5.36-.77-1.6-1.59-1.72 5.19 0 9.02-.76 3.84-.77 5.37-1.6v7.2l-.23 1.54.23.23q1.77-2.24 4.55-4.25 2.77-2 6.9-3.36t9.68-1.36q10.97 0 16.81 6.26 5.84 6.25 5.84 19.59v23.48q0 3.77.77 5.43.77 1.65 1.59 1.65h-16.75q.82 0 1.59-1.65.77-1.66.77-5.43v-23.13q0-6.96-1.77-10.86-1.77-3.89-4.9-5.48-3.13-1.6-7.26-1.6-4.36 0-8.49 1.89t-6.73 6.02-2.6 11.09v22.07q0 3.77.77 5.43.77 1.65 1.59 1.65m63.6-.01h-19.36q1.3 0 3.78-1.65 2.48-1.66 5.43-5.31 2.24-2.72 5.25-6.49 3.01-3.78 6.08-7.61 3.06-3.84 5.42-6.67-1.88-2.13-4.24-4.78-2.36-2.66-4.78-5.49t-4.66-5.43q-2.25-2.59-3.9-4.48-3.3-3.89-5.43-5.55-2.12-1.65-2.95-1.77h19.36q-.95.12-.77 1.83t3.13 5.49q1.29 1.65 3.42 4.19 2.12 2.54 4.48 5.13 2.36 2.6 4.25 4.72h.24q1.65-2 3.83-4.6t4.37-5.19q2.18-2.6 3.6-4.49 2.83-3.77 3.06-5.42.24-1.66-.7-1.66h19.7q-1.18 0-3.6 1.6-2.42 1.59-5.48 5.37-2.13 2.71-5.31 6.43l-6.44 7.49q-3.24 3.78-5.84 6.61 2.6 2.71 6.02 6.43t6.73 7.43q3.3 3.72 5.43 6.55 3.18 4.01 5.42 5.67 2.25 1.65 3.07 1.65h-19.35q1.06 0 .88-1.65-.17-1.66-3.24-5.67-1.3-1.77-3.54-4.36-2.24-2.6-4.66-5.43t-4.43-4.96h-.23q-1.65 2.13-3.9 4.96-2.24 2.83-4.3 5.49-2.07 2.65-3.48 4.54-2.95 3.77-3.13 5.43-.18 1.65.77 1.65"/><rect width="87.411" height="25.99" x="591.162" y="361.181" fill="none" rx="0" ry="0" transform="translate(290.07 485.63)"/><path d="M883.458 867.266q-1.01 0-1.69-.49-.68-.5-.68-1.44 0-1.01.49-1.89.48-.87 1.28-1.53.81-.65 1.76-1.02.96-.37 1.9-.37t1.4.33q.46.34.46.82 0 .46-.42.98-.43.52-1.23.91-.51.23-1.16.4-.66.17-1.14.17-.37 0-.37-.11 0-.09.32-.09.3 0 .93-.18.64-.17 1.23-.47.67-.37.95-.73.27-.37.27-.67 0-.28-.22-.46-.21-.19-.61-.19-.36 0-.82.21-.67.3-1.37.98t-1.16 1.48q-.46.81-.46 1.54 0 .51.28.85.29.35.87.35.59 0 1.38-.38.78-.38 1.58-.94.81-.57 1.5-1.14.69-.58 1.1-.97.14-.14.21-.14t.07.12q0 .16-.14.28-.87.8-1.9 1.67-1.02.88-2.18 1.49t-2.43.63"/><path d="M890.368 867.276q-.92 0-1.62-.35-.7-.36-1.02-1.33-.03-.09.05-.11t.11.09q.23.51.6.71.36.21.8.21.74 0 1.3-.44.56-.43 1.01-1.1t.81-1.37q.35-.7.67-1.21.51-.85 1.21-1.54t1.28-.85q-.14-.07-.35-.07-.57 0-1.26.35-.69.34-1.39.9-.7.55-1.36 1.16-.65.61-1.2 1.12-.54.52-.86.82-.18.16-.27.16-.1 0-.1-.09 0-.14.12-.25.69-.6 1.42-1.35.74-.75 1.5-1.45t1.54-1.16 1.59-.46h.17q.08 0 .17.02.26.03.47.14.22.12.13.16-.53.23-.83.92t-.55 1.61-.61 1.87q-.35.94-1.02 1.67.32-.11 1.01-.52.69-.42 1.52-1.03t1.54-1.34q.09-.1.18-.1.12 0 .12.12 0 .09-.09.18-.62.6-1.38 1.28t-1.65 1.28q-.88.59-1.83.97-.94.38-1.93.38"/><path d="M897.628 867.416q-.74 0-1.13-.44-.39-.43-.39-1.21 0-.74.39-1.73l.05-.11-.42.39q-.09.09-.2.09-.12 0-.12-.09 0-.12.16-.28.6-.53 1.23-1.12.64-.58 1.07-1.11-.16.07-.34.07-.19 0-.28-.09-.16-.12-.16-.42 0-.25.24-.53.24-.27 1-.48.16-.05.34-.07l.33-.04q.74-1.04 1.29-1.93.55-.88.87-1.18.14-.16.5-.28.35-.11.76-.18.4-.07.63-.07.76 0 .76.14 0 .09-.35.44-.57.55-1.34 1.36-.77.82-1.58 1.76.67.1 1.23.35.57.25.82.64.09.12.09.28 0 .18-.12.18-.09 0-.2-.11-.49-.48-1.61-.48-.23 0-.47.02-.25.02-.5.07-.78 1.01-1.42 2.02-.65 1.01-.92 1.89-.14.41-.14.76 0 .34.16.56t.48.22q.21 0 .51-.12.43-.16 1.01-.54.57-.38 1.16-.86t1.11-.94q.51-.46.86-.78.34-.33.39-.37.07-.07.11-.07.1 0 .1.14 0 .16-.14.3-.23.23-.7.69-.48.46-1.08 1.02-.61.56-1.3 1.07-.69.5-1.4.84-.7.33-1.34.33m5.99-.39q-.3 0-.46-.16-.25-.21-.25-.58 0-.52.41-.96.48-.55 1.1-.55.26 0 .46.13.26.21.26.58 0 .51-.42.97-.5.57-1.1.57m22.38.72q-.14 0-.07-.18.14-.46-.6-.79-.73-.34-1.97-.51-1.23-.17-2.63-.17-.92 0-1.82.07-.89.07-1.7.25-.55.11-1.16.33t-1.17.38q-.57.16-.98.16-.28 0-.44-.09t-.16-.41.29-.75 1.08-.85q.79-.43 2.29-.7.44-.09.64-.14.21-.05.6-.23 1.36-.6 2.73-1.2 1.37-.59 2.65-1.31.99-.55 1.41-1.16.41-.61.41-1.18 0-.74-.54-1.27t-1.35-.64q-.29-.05-.59-.07t-.6-.02q-1.36 0-2.44.35-1.08.36-1.71.84-.64.48-.64.83 0 .39.79.39.55 0 1.47-.23.9-.23 1.56-.55.67-.32 1.11-.76.07-.07.09-.08t.04.08q.03.07.03.18 0 .35-.32.66-.33.31-.79.59-.46.27-.88.44-.43.18-.66.25-.66.16-1.22.24-.55.08-.96.08-.78 0-1.15-.22t-.37-.56q0-.51.62-1.09.46-.41 1.24-.81t1.77-.74q.99-.33 2.05-.53 1.06-.19 2.05-.19 1.15 0 2.1.32.96.32 1.39 1.13.26.43.26.92 0 .69-.54 1.46t-1.69 1.5q-1.27.81-2.95 1.42t-3.22 1.14q1.11.02 2.3.18 1.2.16 2.22.51 1.02.34 1.66.89.63.56.63 1.34v.14q0 .06-.02.16-.03.2-.14.2m5.38-.27q-1.22 0-1.95-.66-.74-.65-.74-1.71 0-1.15.53-2.37t1.45-2.35q.92-1.12 2.07-2.01 1.15-.88 2.39-1.41t2.44-.53q1.4 0 2.35.69.96.69.96 2.25 0 .99-.56 2.11-.57 1.11-1.53 2.17-.97 1.06-2.19 1.92t-2.56 1.38q-1.35.52-2.66.52m.02-.58q.88 0 1.85-.38.98-.38 1.93-1.04.94-.67 1.7-1.54.76-.88 1.22-1.86.46-.97.46-1.96 0-.88-.62-1.36-.63-.48-1.73-.48-.92 0-1.9.4-.97.4-1.88 1.1-.91.71-1.62 1.58-.72.87-1.13 1.83-.42.95-.42 1.87 0 .83.57 1.34.56.5 1.57.5m21.25.85q-.14 0-.07-.18.13-.46-.6-.79-.74-.34-1.97-.51t-2.63-.17q-.92 0-1.82.07t-1.7.25q-.55.11-1.16.33t-1.18.38q-.56.16-.97.16-.28 0-.44-.09t-.16-.41.29-.75q.28-.43 1.08-.85.79-.43 2.29-.7.43-.09.64-.14t.6-.23l2.72-1.2q1.37-.59 2.66-1.31.99-.55 1.4-1.16.42-.61.42-1.18 0-.74-.54-1.27t-1.35-.64q-.3-.05-.6-.07t-.59-.02q-1.36 0-2.44.35-1.08.36-1.72.84-.63.48-.63.83 0 .39.78.39.55 0 1.47-.23.9-.23 1.57-.55t1.1-.76q.07-.07.09-.08.03-.01.05.08.02.07.02.18 0 .35-.32.66t-.78.59q-.46.27-.89.44-.42.18-.65.25-.67.16-1.22.24t-.97.08q-.78 0-1.15-.22-.36-.22-.36-.56 0-.51.62-1.09.46-.41 1.24-.81t1.77-.74q.99-.33 2.05-.53 1.06-.19 2.04-.19 1.15 0 2.11.32.95.32 1.39 1.13.25.43.25.92 0 .69-.54 1.46t-1.69 1.5q-1.26.81-2.94 1.42t-3.22 1.14q1.1.02 2.3.18 1.19.16 2.22.51 1.02.34 1.65.89.64.56.64 1.34v.14q0 .06-.03.16-.02.2-.13.2m4.2 1.26q-1.28 0-2.2-.39t-1.09-1.38q-.02-.07-.02-.14v-.14q0-.64.44-1.16t1.11-.92q.68-.4 1.42-.7.76-.32 1.87-.45 1.12-.13 2.11-.13 1.13 0 1.68.14.34.09.34.25 0 .12-.46.12-.3 0-.96.1-.67.11-1.54.3-.88.2-1.79.46-.91.27-1.69.59-1.06.44-1.54.86-.48.43-.48.79 0 .46.72.77.73.32 1.83.32.6 0 1.59-.23t2.11-.66q1.13-.43 2.13-.98t1.65-1.21q.64-.65.64-1.36 0-.74-.83-1.43-.48-.39-1.07-.61-.58-.22-1.2-.26-.3-.03-.5-.14-.19-.12-.19-.23 0-.16.27-.31.28-.15.92-.17.58-.05 1.25-.23.68-.19 1.19-.6.5-.42.5-1.13 0-.67-.59-1.18-.6-.52-1.87-.52-.36 0-.8.07t-.92.18q-.78.19-1.23.54-.45.36-.45.68 0 .3.37.46.3.14.6.26.29.13.73.18.14 0 .14.14 0 .11-.21.11-.64.02-1.31-.1-.66-.13-.99-.27-.27-.11-.39-.3-.11-.18-.11-.36 0-.42.4-.78.4-.35 1.02-.62.62-.26 1.27-.4.5-.11 1.45-.25.94-.14 1.93-.14.8 0 1.52.15.71.15 1.15.52.43.37.43 1.06 0 .48-.47 1.02t-1.16.99-1.36.68q.21.02.74.13.53.12.9.42.43.34.64.8t.21.99q0 1.13-.92 2.34-.92 1.2-2.58 1.99-.8.36-1.88.71-1.08.34-2.25.55-1.16.21-2.22.21"/></g><path fill="transparent" stroke="transparent" stroke-width="2.601" d="M293.519 493.816h1456.48v512.368H293.519z"/></g></svg>