<?xml version="1.0" standalone="no"?>
<!DOCTYPE svg PUBLIC "-//W3C//DTD SVG 20010904//EN"
 "http://www.w3.org/TR/2001/REC-SVG-20010904/DTD/svg10.dtd">
<svg version="1.0" xmlns="http://www.w3.org/2000/svg"
 width="300.000000pt" height="300.000000pt" viewBox="0 0 300.000000 300.000000"
 preserveAspectRatio="xMidYMid meet">
<metadata>
Created by potrace 1.10, written by Peter Selinger 2001-2011
</metadata>
<g transform="translate(0.000000,300.000000) scale(0.100000,-0.100000)"
fill="#8134af" stroke="none">
<path d="M1080 1755 l0 -405 45 0 45 0 0 405 0 405 -45 0 -45 0 0 -405z m69
16 c-1 -198 -6 -365 -10 -372 -15 -25 -34 39 -22 72 6 16 8 27 3 24 -4 -3 -8
26 -8 63 -1 37 -4 181 -8 320 l-7 252 27 0 27 0 -2 -359z"/>
<path d="M1363 1755 l2 -405 63 0 c70 0 44 -18 236 160 118 109 176 171 177
188 3 35 2 67 -2 80 -2 8 -41 50 -86 95 -46 45 -83 88 -83 94 0 7 -6 12 -12
10 -7 -1 -12 3 -11 10 2 7 -11 20 -27 30 -17 9 -33 24 -36 33 -3 8 -30 36 -60
63 -50 44 -58 47 -108 47 l-55 0 2 -405z m182 310 c45 -46 80 -73 87 -69 6 4
8 3 5 -3 -4 -6 36 -56 88 -111 100 -105 118 -140 94 -183 -17 -33 -129 -139
-146 -139 -8 0 -11 -4 -8 -10 3 -5 2 -10 -4 -10 -6 0 -22 -12 -36 -26 -15 -15
-54 -51 -88 -80 -51 -44 -69 -54 -98 -54 -21 0 -39 6 -41 13 -2 6 -5 109 -6
227 -1 118 -5 277 -8 353 -4 88 -2 143 5 150 5 7 26 14 45 15 32 2 43 -5 111
-73z"/>
<path d="M1471 2024 c2 -6 64 -73 137 -149 105 -110 130 -140 121 -151 -6 -8
-70 -69 -141 -136 l-130 -122 3 64 c2 36 2 162 0 280 -4 280 -19 226 -22 -80
-3 -249 5 -290 48 -262 45 29 95 75 205 190 31 33 59 57 62 55 3 -3 2 6 -2 20
-4 15 -54 75 -112 134 -114 118 -176 174 -169 157z"/>
<path d="M1707 2125 c-16 -20 -27 -44 -25 -54 4 -23 322 -355 326 -341 2 6
-53 68 -123 138 -70 70 -142 144 -161 165 -33 37 -34 38 -17 63 9 14 27 30 40
35 13 5 21 13 18 19 -11 18 -30 10 -58 -25z"/>
<path d="M1856 1564 c-119 -110 -146 -141 -146 -163 0 -70 61 -70 138 2 67 62
139 128 205 187 26 24 45 45 42 48 -2 3 3 11 13 18 9 7 14 14 10 14 -4 0 -23
-15 -41 -32 -124 -119 -281 -255 -302 -261 -23 -8 -39 1 -43 24 -1 10 54 70
140 152 78 75 140 139 136 142 -3 3 -71 -56 -152 -131z"/>
<path d="M541 1206 c-9 -11 -8 -18 4 -30 29 -29 54 -12 35 24 -13 24 -23 25
-39 6z"/>
<path d="M1650 1197 c0 -27 19 -40 39 -27 20 12 8 45 -17 48 -18 3 -22 -1 -22
-21z"/>
<path d="M690 1021 l0 -171 78 0 c129 0 202 55 202 151 0 115 -63 172 -203
184 l-77 7 0 -171z m181 103 c54 -27 73 -106 43 -170 -21 -44 -54 -61 -124
-65 l-55 -4 -3 128 -3 127 56 0 c31 0 69 -7 86 -16z"/>
<path d="M2161 1124 c-25 -11 -32 -17 -23 -26 8 -8 6 -15 -8 -27 -21 -18 -32
-91 -20 -131 6 -18 8 -5 9 42 1 66 15 98 44 98 6 0 2 7 -9 15 -10 8 -14 15 -9
15 40 5 63 15 54 24 -2 2 -19 -2 -38 -10z"/>
<path d="M1092 1110 c-81 -50 -81 -190 0 -240 54 -33 91 -35 139 -9 24 13 44
29 46 35 7 22 -30 24 -72 4 -67 -33 -115 -11 -130 58 l-7 32 110 0 110 0 -10
38 c-24 89 -112 127 -186 82z m114 -28 c11 -7 34 -45 34 -56 0 -3 -38 -6 -85
-6 -92 0 -100 6 -60 45 24 25 86 34 111 17z"/>
<path d="M1407 1118 c-27 -10 -42 -40 -35 -75 4 -20 50 -46 118 -65 40 -12 45
-17 48 -45 4 -38 -22 -56 -82 -56 -31 0 -45 6 -63 27 -13 15 -28 24 -33 21
-39 -24 39 -79 112 -79 141 0 151 144 12 170 -57 10 -76 22 -72 47 5 35 50 45
95 22 21 -11 41 -21 44 -23 4 -1 9 4 12 13 5 10 -5 21 -33 35 -42 22 -79 24
-123 8z"/>
<path d="M1650 990 l0 -140 25 0 26 0 -2 140 c-2 140 -2 140 -25 140 l-24 0 0
-140z"/>
<path d="M1816 1109 c-37 -29 -56 -70 -56 -121 0 -91 68 -141 141 -104 18 9
33 16 34 16 1 0 -1 -17 -4 -37 -4 -26 -14 -41 -31 -50 -34 -17 -75 -16 -94 2
-16 16 -36 20 -36 7 0 -18 47 -51 81 -57 42 -8 102 14 117 42 6 10 11 87 11
171 l2 152 -23 -3 c-12 -2 -24 -9 -26 -15 -2 -8 -12 -7 -32 3 -39 20 -52 19
-84 -6z m95 -29 c15 -9 19 -22 19 -66 0 -69 -11 -89 -56 -104 -52 -17 -74 5
-74 75 0 43 5 57 26 79 28 28 53 32 85 16z m49 -157 c-1 -38 -3 -44 -11 -30
-9 16 -4 77 7 77 2 0 4 -21 4 -47z"/>
<path d="M2430 1111 c5 -11 15 -23 21 -27 8 -4 8 0 0 15 -10 19 -9 21 12 21
17 0 30 -11 46 -40 12 -22 25 -40 29 -40 4 0 17 18 30 40 17 30 29 40 48 40
24 0 24 0 8 -27 l-16 -28 21 25 c28 34 26 40 -12 40 -28 0 -37 -6 -53 -35 -10
-19 -22 -35 -25 -35 -4 0 -17 16 -29 35 -18 29 -27 35 -56 35 -31 0 -34 -2
-24 -19z"/>
<path d="M540 985 c0 -133 0 -135 23 -135 22 0 22 2 22 135 0 133 0 135 -22
135 -23 0 -23 -2 -23 -135z"/>
<path d="M2482 1030 c20 -35 24 -50 16 -65 -9 -20 -9 -20 6 -1 14 18 14 22 -6
55 -32 54 -45 63 -16 11z"/>
<path d="M2258 955 c3 -104 4 -105 28 -105 23 0 24 3 22 53 l-2 52 -3 -48 c-3
-32 -8 -47 -16 -44 -8 2 -13 35 -15 93 -2 49 -6 92 -10 96 -4 4 -6 -40 -4 -97z"/>
<path d="M2580 1025 c-17 -27 -19 -38 -10 -55 6 -11 13 -20 16 -20 2 0 0 9 -6
20 -9 17 -7 28 10 55 12 19 19 35 17 35 -3 0 -15 -16 -27 -35z"/>
<path d="M2456 902 c-32 -47 -33 -62 -1 -62 22 0 65 34 65 51 0 4 7 15 16 24
9 9 14 18 11 21 -3 3 -19 -15 -37 -40 -19 -28 -39 -46 -50 -46 -25 0 -25 5 -2
38 26 37 34 52 29 52 -2 0 -16 -17 -31 -38z"/>
<path d="M2068 915 c-3 -6 -4 -23 -1 -38 8 -39 47 -34 51 6 2 15 -1 27 -7 27
-6 0 -11 -9 -11 -20 0 -30 -18 -24 -22 8 -2 15 -6 22 -10 17z"/>
</g>
</svg>
